<svg width="23" height="19" viewBox="0 0 23 19" fill="none" xmlns="http://www.w3.org/2000/svg">
<path d="M20.7031 5.0957C20.7031 5.31055 20.7031 5.48242 20.7031 5.69727C20.7031 11.6699 16.1914 18.502 7.89844 18.502C5.32031 18.502 2.95703 17.7715 0.980469 16.4824C1.32422 16.5254 1.66797 16.5684 2.05469 16.5684C4.16016 16.5684 6.09375 15.8379 7.64062 14.6348C5.66406 14.5918 3.98828 13.3027 3.42969 11.498C3.73047 11.541 3.98828 11.584 4.28906 11.584C4.67578 11.584 5.10547 11.498 5.44922 11.4121C3.38672 10.9824 1.83984 9.17773 1.83984 6.98633V6.94336C2.44141 7.28711 3.17188 7.45898 3.90234 7.50195C2.65625 6.68555 1.88281 5.31055 1.88281 3.76367C1.88281 2.9043 2.09766 2.13086 2.48438 1.48633C4.71875 4.19336 8.07031 5.99805 11.8086 6.21289C11.7227 5.86914 11.6797 5.52539 11.6797 5.18164C11.6797 2.68945 13.6992 0.669922 16.1914 0.669922C17.4805 0.669922 18.6406 1.18555 19.5 2.08789C20.4883 1.87305 21.4766 1.48633 22.3359 0.970703C21.9922 2.04492 21.3047 2.9043 20.3594 3.46289C21.2617 3.37695 22.1641 3.11914 22.9375 2.77539C22.3359 3.67773 21.5625 4.45117 20.7031 5.0957Z" fill="black"/>
</svg>
