<svg width="140" height="90" viewBox="0 0 140 90" fill="none" xmlns="http://www.w3.org/2000/svg">
<rect width="140" height="90" rx="12" fill="#B5B5B5" fill-opacity="0.4"/>
<g clip-path="url(#clip0_1377_79)">
<path d="M96.1094 65.3906H43.8906C41.7461 65.3906 40 63.6445 40 61.4883V28.5117C40 26.3671 41.7461 24.6211 43.8906 24.6211H96.0976C98.2538 24.6211 99.9999 26.3671 99.9999 28.5117V61.4883C100 63.6445 98.2539 65.3906 96.1094 65.3906Z" fill="#505278"/>
<path d="M96.1095 24.6211H70V65.3906H96.1094C98.2656 65.3906 100 63.6445 100 61.5V28.5117C100 26.3671 98.254 24.6211 96.1095 24.6211Z" fill="#424566"/>
<path d="M71.3008 24.6211C70.9023 36.6562 60.9883 46.3125 48.8594 46.3125C45.7187 46.3125 42.7188 45.6679 40 44.4844V39.2461C42.6133 40.7578 45.6367 41.6133 48.8594 41.6133C58.3984 41.6133 66.2031 34.0547 66.6015 24.6094H71.3007V24.6211H71.3008Z" fill="#575982"/>
<path d="M70 24.6211V31.4297C70.7617 29.2851 71.2188 27 71.3007 24.6211H70Z" fill="#505278"/>
<path d="M100 48.4573V53.2151C97.1876 52.676 94.4454 52.4417 91.7267 52.7113C86.8166 53.2034 82.2579 55.5004 77.3712 59.9418C76.586 60.6566 75.7891 61.3949 75.0274 62.1097C73.8556 63.1996 72.6836 64.3011 71.4531 65.3793H63.8594C66.6719 63.5042 69.1914 61.1488 71.8281 58.6879C72.6133 57.9613 73.4101 57.1996 74.2187 56.473C79.8906 51.3285 85.3047 48.6448 91.2578 48.0472C94.1994 47.7542 97.1759 47.9886 100 48.4573Z" fill="#505278"/>
<path d="M63.8594 65.3906H70V60.3867C67.9961 62.2265 66.0156 63.9493 63.8594 65.3906Z" fill="#575982"/>
<path d="M52.5625 44.461H46.8086C45.9297 44.461 45.2148 43.7461 45.2148 42.8672V39.0469C45.2148 38.1679 45.9297 37.4531 46.8086 37.4531H52.5625C53.4415 37.4531 54.1563 38.1679 54.1563 39.0469V42.8672C54.1446 43.7579 53.4414 44.461 52.5625 44.461Z" fill="#424566"/>
<path d="M52.5625 44.3672H46.7969C45.9766 44.3672 45.3086 43.6992 45.3086 42.8789V39.0469C45.3086 38.2266 45.9766 37.5586 46.7969 37.5586H52.5625C53.3828 37.5586 54.0508 38.2266 54.0508 39.0469V42.8789C54.0508 43.6992 53.3828 44.3672 52.5625 44.3672Z" fill="#FEBD55"/>
<path d="M54.0508 41.0859V40.8516H51.0039V39.8203L51.789 39.0352H54.0508C54.0508 38.9531 54.0391 38.8711 54.0274 38.8008H51.7305C51.6954 38.8008 51.6719 38.8125 51.6484 38.8359L50.8282 39.6562H49.7968V37.5703H49.5625V39.6562H48.5429L47.7226 38.8359C47.6992 38.8125 47.664 38.8008 47.6406 38.8008H45.332C45.3203 38.8711 45.3086 38.9531 45.3086 39.0352H47.5937L48.3672 39.8086V40.8516H45.3086V41.0859H48.3672V42.1289L47.5937 42.9023H45.3086C45.3086 42.9844 45.3203 43.0664 45.332 43.1367H47.6406C47.6757 43.1367 47.6992 43.125 47.7226 43.1016L48.5429 42.2813H49.5625V44.3672H49.7968V42.2813H50.8281L51.6484 43.1016C51.6718 43.125 51.6952 43.1367 51.7304 43.1367H54.0273C54.039 43.0664 54.0507 42.9844 54.0507 42.9023H51.789L51.0038 42.1172V41.0859H54.0508ZM50.7695 42.0468H48.6016V39.8789H50.7695V42.0468Z" fill="#B5613C"/>
<path d="M93.7189 44.297C93.6603 44.297 93.6134 44.2853 93.5666 44.2619C93.3908 44.1799 93.3205 43.9689 93.4143 43.7932C94.3166 42.0002 94.3166 39.9494 93.4143 38.1564C93.3322 37.9806 93.4026 37.7698 93.5666 37.6877C93.7424 37.6056 93.9533 37.676 94.0353 37.84C95.0432 39.8322 95.0432 42.1174 94.0353 44.1095C93.965 44.2268 93.8478 44.297 93.7189 44.297ZM92.5118 43.6291C93.461 41.9416 93.461 39.9963 92.5118 38.3087C92.4181 38.1447 92.2071 38.0744 92.0314 38.1799C91.8674 38.2736 91.797 38.4846 91.9025 38.6603C92.7345 40.1369 92.7345 41.8244 91.9025 43.2892C91.8087 43.4532 91.8674 43.6759 92.0314 43.7697C92.09 43.8048 92.1486 43.8165 92.2072 43.8165C92.3243 43.8049 92.4415 43.7345 92.5118 43.6291ZM91.0119 43.1486C91.9376 41.801 91.9376 40.1252 91.0119 38.7658C90.9064 38.6018 90.6837 38.5665 90.5197 38.672C90.3557 38.7775 90.3205 39.0001 90.4259 39.1642C91.176 40.2658 91.176 41.6486 90.4259 42.7501C90.3205 42.9142 90.3556 43.1251 90.5197 43.2423C90.5784 43.2891 90.6486 43.3008 90.719 43.3008C90.836 43.3127 90.9415 43.2541 91.0119 43.1486ZM89.4298 42.7033C89.9455 42.2346 90.2267 41.6134 90.2267 40.969C90.2267 40.3245 89.9455 39.7033 89.4298 39.2346C89.2892 39.1057 89.0666 39.1057 88.9377 39.258C88.8088 39.3986 88.8088 39.6213 88.9611 39.7502C89.3244 40.09 89.5236 40.5236 89.5236 40.969C89.5236 41.4143 89.3244 41.8479 88.9611 42.1877C88.8205 42.3166 88.8088 42.5393 88.9377 42.6799C89.008 42.7502 89.1017 42.7971 89.1955 42.7971C89.2774 42.7971 89.3595 42.7619 89.4298 42.7033Z" fill="#CAD4FF"/>
<path d="M69.5195 59.4844H45.6601C45.4609 59.4844 45.3086 59.332 45.3086 59.1328C45.3086 58.9336 45.4609 58.7812 45.6601 58.7812H69.5195C69.7187 58.7812 69.871 58.9336 69.871 59.1328C69.871 59.332 69.707 59.4844 69.5195 59.4844Z" fill="#E6EAFF"/>
<path d="M94.4336 59.4844H89.9102C89.7109 59.4844 89.5586 59.332 89.5586 59.1328C89.5586 58.9336 89.7109 58.7812 89.9102 58.7812H94.4336C94.6328 58.7812 94.7852 58.9336 94.7852 59.1328C94.7852 59.332 94.6211 59.4844 94.4336 59.4844ZM87.9883 59.1328C87.9883 58.9336 87.836 58.7812 87.6367 58.7812H83.1133C82.914 58.7812 82.7617 58.9336 82.7617 59.1328C82.7617 59.332 82.914 59.4844 83.1133 59.4844H87.6367C87.836 59.4844 87.9883 59.3203 87.9883 59.1328Z" fill="#CAD4FF"/>
<path d="M45.6601 32.6132C45.4609 32.6132 45.3086 32.4609 45.3086 32.2617V30.8789C45.3086 30.6797 45.4609 30.5273 45.6601 30.5273C45.8594 30.5273 46.0117 30.6797 46.0117 30.8789V32.25C46.0117 32.4492 45.8594 32.6132 45.6601 32.6132ZM47.9219 32.2617V30.8789C47.9219 30.6797 47.7696 30.5273 47.5703 30.5273C47.3711 30.5273 47.2188 30.6797 47.2188 30.8789V32.25C47.2188 32.4492 47.3711 32.6015 47.5703 32.6015C47.7695 32.6132 47.9219 32.4492 47.9219 32.2617ZM49.8438 32.2617V30.8789C49.8438 30.6797 49.6914 30.5273 49.4922 30.5273C49.293 30.5273 49.1406 30.6797 49.1406 30.8789V32.25C49.1406 32.4492 49.293 32.6015 49.4922 32.6015C49.6796 32.6132 49.8438 32.4492 49.8438 32.2617ZM51.7539 32.2617V30.8789C51.7539 30.6797 51.6016 30.5273 51.4024 30.5273C51.2031 30.5273 51.0508 30.6797 51.0508 30.8789V32.25C51.0508 32.4492 51.2031 32.6015 51.4024 32.6015C51.6015 32.6132 51.7539 32.4492 51.7539 32.2617Z" fill="#E6EAFF"/>
<path d="M46.3867 53.5195H46.3281C45.7422 53.5195 45.2617 53.039 45.2617 52.4531V50.789C45.2617 50.2031 45.7422 49.7227 46.3281 49.7227H46.3867C46.9726 49.7227 47.4531 50.2031 47.4531 50.789V52.4531C47.4532 53.0389 46.9845 53.5195 46.3867 53.5195ZM46.3282 50.4257C46.1289 50.4257 45.9649 50.5897 45.9649 50.7889V52.453C45.9649 52.6523 46.1289 52.8163 46.3282 52.8163H46.3868C46.5861 52.8163 46.7501 52.6523 46.7501 52.453V50.7889C46.7501 50.5897 46.5861 50.4257 46.3868 50.4257H46.3282Z" fill="#E6EAFF"/>
<path d="M49.2344 53.5195H49.1757C48.5898 53.5195 48.1094 53.039 48.1094 52.4531V50.789C48.1094 50.2031 48.5898 49.7227 49.1757 49.7227H49.2344C49.8203 49.7227 50.3008 50.2031 50.3008 50.789V52.4531C50.3008 53.0389 49.8321 53.5195 49.2344 53.5195ZM49.1758 50.4257C48.9766 50.4257 48.8126 50.5897 48.8126 50.7889V52.453C48.8126 52.6523 48.9766 52.8163 49.1758 52.8163H49.2345C49.4337 52.8163 49.5977 52.6523 49.5977 52.453V50.7889C49.5977 50.5897 49.4337 50.4257 49.2345 50.4257H49.1758Z" fill="#E6EAFF"/>
<path d="M52.082 53.5195H52.0234C51.4375 53.5195 50.957 53.039 50.957 52.4531V50.789C50.957 50.2031 51.4375 49.7227 52.0234 49.7227H52.082C52.668 49.7227 53.1484 50.2031 53.1484 50.789V52.4531C53.1484 53.0389 52.668 53.5195 52.082 53.5195ZM52.0234 50.4257C51.8242 50.4257 51.6601 50.5897 51.6601 50.7889V52.453C51.6601 52.6523 51.8242 52.8163 52.0234 52.8163H52.082C52.2813 52.8163 52.4453 52.6523 52.4453 52.453V50.7889C52.4453 50.5897 52.2813 50.4257 52.082 50.4257H52.0234Z" fill="#E6EAFF"/>
<path d="M54.9297 53.5195H54.8711C54.2851 53.5195 53.8047 53.039 53.8047 52.4531V50.789C53.8047 50.2031 54.2851 49.7227 54.8711 49.7227H54.9297C55.5156 49.7227 55.9961 50.2031 55.9961 50.789V52.4531C55.9961 53.0389 55.5156 53.5195 54.9297 53.5195ZM54.8711 50.4257C54.6718 50.4257 54.5078 50.5897 54.5078 50.7889V52.453C54.5078 52.6523 54.6718 52.8163 54.8711 52.8163H54.9297C55.1289 52.8163 55.293 52.6523 55.293 52.453V50.7889C55.293 50.5897 55.1289 50.4257 54.9297 50.4257H54.8711Z" fill="#E6EAFF"/>
<path d="M59.3008 53.5195H59.2421C58.6562 53.5195 58.1758 53.039 58.1758 52.4531V50.789C58.1758 50.2031 58.6562 49.7227 59.2421 49.7227H59.3008C59.8867 49.7227 60.3672 50.2031 60.3672 50.789V52.4531C60.3673 53.0389 59.8867 53.5195 59.3008 53.5195ZM59.2422 50.4257C59.043 50.4257 58.879 50.5897 58.879 50.7889V52.453C58.879 52.6523 59.043 52.8163 59.2422 52.8163H59.3009C59.5001 52.8163 59.6641 52.6523 59.6641 52.453V50.7889C59.6641 50.5897 59.5001 50.4257 59.3009 50.4257H59.2422Z" fill="#E6EAFF"/>
<path d="M62.1484 53.5195H62.0898C61.5039 53.5195 61.0234 53.039 61.0234 52.4531V50.789C61.0234 50.2031 61.5039 49.7227 62.0898 49.7227H62.1484C62.7344 49.7227 63.2148 50.2031 63.2148 50.789V52.4531C63.2149 53.0389 62.7344 53.5195 62.1484 53.5195ZM62.0899 50.4257C61.8907 50.4257 61.7266 50.5897 61.7266 50.7889V52.453C61.7266 52.6523 61.8907 52.8163 62.0899 52.8163H62.1485C62.3478 52.8163 62.5118 52.6523 62.5118 52.453V50.7889C62.5118 50.5897 62.3478 50.4257 62.1485 50.4257H62.0899Z" fill="#E6EAFF"/>
<path d="M64.9961 53.5195H64.9375C64.3515 53.5195 63.8711 53.039 63.8711 52.4531V50.789C63.8711 50.2031 64.3515 49.7227 64.9375 49.7227H64.9961C65.582 49.7227 66.0625 50.2031 66.0625 50.789V52.4531C66.0626 53.0389 65.5821 53.5195 64.9961 53.5195ZM64.9376 50.4257C64.7383 50.4257 64.5743 50.5897 64.5743 50.7889V52.453C64.5743 52.6523 64.7383 52.8163 64.9376 52.8163H64.9962C65.1954 52.8163 65.3595 52.6523 65.3595 52.453V50.7889C65.3595 50.5897 65.1954 50.4257 64.9962 50.4257H64.9376Z" fill="#E6EAFF"/>
<path d="M67.8438 53.5195H67.7851C67.1992 53.5195 66.7188 53.039 66.7188 52.4531V50.789C66.7188 50.2031 67.1992 49.7227 67.7851 49.7227H67.8438C68.4297 49.7227 68.9101 50.2031 68.9101 50.789V52.4531C68.9102 53.0389 68.4298 53.5195 67.8438 53.5195ZM67.7852 50.4257C67.586 50.4257 67.422 50.5897 67.422 50.7889V52.453C67.422 52.6523 67.586 52.8163 67.7852 52.8163H67.8439C68.0431 52.8163 68.2071 52.6523 68.2071 52.453V50.7889C68.2071 50.5897 68.0431 50.4257 67.8439 50.4257H67.7852Z" fill="#E6EAFF"/>
<path d="M72.2149 53.5195H72.1562C71.5703 53.5195 71.0898 53.039 71.0898 52.4531V50.789C71.0898 50.2031 71.5703 49.7227 72.1562 49.7227H72.2149C72.8008 49.7227 73.2812 50.2031 73.2812 50.789V52.4531C73.2812 53.0389 72.8008 53.5195 72.2149 53.5195ZM72.1562 50.4257C71.957 50.4257 71.793 50.5897 71.793 50.7889V52.453C71.793 52.6523 71.957 52.8163 72.1562 52.8163H72.2149C72.4141 52.8163 72.5781 52.6523 72.5781 52.453V50.7889C72.5781 50.5897 72.4141 50.4257 72.2149 50.4257H72.1562Z" fill="#CAD4FF"/>
<path d="M75.0624 53.5195H75.0039C74.4179 53.5195 73.9375 53.039 73.9375 52.4531V50.789C73.9375 50.2031 74.4179 49.7227 75.0039 49.7227H75.0624C75.6483 49.7227 76.1288 50.2031 76.1288 50.789V52.4531C76.1288 53.0389 75.6483 53.5195 75.0624 53.5195ZM75.0039 50.4257C74.8046 50.4257 74.6406 50.5897 74.6406 50.7889V52.453C74.6406 52.6523 74.8046 52.8163 75.0039 52.8163H75.0624C75.2617 52.8163 75.4257 52.6523 75.4257 52.453V50.7889C75.4257 50.5897 75.2617 50.4257 75.0624 50.4257H75.0039Z" fill="#CAD4FF"/>
<path d="M77.9102 53.5195H77.8515C77.2656 53.5195 76.7852 53.039 76.7852 52.4531V50.789C76.7852 50.2031 77.2656 49.7227 77.8515 49.7227H77.9102C78.4961 49.7227 78.9765 50.2031 78.9765 50.789V52.4531C78.9766 53.0389 78.4961 53.5195 77.9102 53.5195ZM77.8516 50.4257C77.6524 50.4257 77.4884 50.5897 77.4884 50.7889V52.453C77.4884 52.6523 77.6524 52.8163 77.8516 52.8163H77.9103C78.1095 52.8163 78.2735 52.6523 78.2735 52.453V50.7889C78.2735 50.5897 78.1095 50.4257 77.9103 50.4257H77.8516Z" fill="#CAD4FF"/>
<path d="M80.7578 53.5195H80.6992C80.1133 53.5195 79.6328 53.039 79.6328 52.4531V50.789C79.6328 50.2031 80.1133 49.7227 80.6992 49.7227H80.7578C81.3437 49.7227 81.8242 50.2031 81.8242 50.789V52.4531C81.8243 53.0389 81.3437 53.5195 80.7578 53.5195ZM80.6993 50.4257C80.5 50.4257 80.336 50.5897 80.336 50.7889V52.453C80.336 52.6523 80.5 52.8163 80.6993 52.8163H80.7579C80.9572 52.8163 81.1212 52.6523 81.1212 52.453V50.7889C81.1212 50.5897 80.9572 50.4257 80.7579 50.4257H80.6993Z" fill="#CAD4FF"/>
<path d="M85.1289 53.5195H85.0703C84.4844 53.5195 84.0039 53.039 84.0039 52.4531V50.789C84.0039 50.2031 84.4844 49.7227 85.0703 49.7227H85.1289C85.7148 49.7227 86.1953 50.2031 86.1953 50.789V52.4531C86.1953 53.0389 85.7148 53.5195 85.1289 53.5195ZM85.0703 50.4257C84.871 50.4257 84.707 50.5897 84.707 50.7889V52.453C84.707 52.6523 84.871 52.8163 85.0703 52.8163H85.1289C85.3282 52.8163 85.4922 52.6523 85.4922 52.453V50.7889C85.4922 50.5897 85.3282 50.4257 85.1289 50.4257H85.0703Z" fill="#CAD4FF"/>
<path d="M87.9765 53.5195H87.9179C87.332 53.5195 86.8516 53.039 86.8516 52.4531V50.789C86.8516 50.2031 87.332 49.7227 87.9179 49.7227H87.9765C88.5624 49.7227 89.0428 50.2031 89.0428 50.789V52.4531C89.0428 53.0389 88.5624 53.5195 87.9765 53.5195ZM87.9178 50.4257C87.7186 50.4257 87.5546 50.5897 87.5546 50.7889V52.453C87.5546 52.6523 87.7186 52.8163 87.9178 52.8163H87.9764C88.1756 52.8163 88.3396 52.6523 88.3396 52.453V50.7889C88.3396 50.5897 88.1756 50.4257 87.9764 50.4257H87.9178Z" fill="#CAD4FF"/>
<path d="M90.8242 53.5195H90.7656C90.1797 53.5195 89.6992 53.039 89.6992 52.4531V50.789C89.6992 50.2031 90.1797 49.7227 90.7656 49.7227H90.8242C91.4102 49.7227 91.8906 50.2031 91.8906 50.789V52.4531C91.8906 53.0389 91.4102 53.5195 90.8242 53.5195ZM90.7657 50.4257C90.5664 50.4257 90.4024 50.5897 90.4024 50.7889V52.453C90.4024 52.6523 90.5664 52.8163 90.7657 52.8163H90.8243C91.0236 52.8163 91.1876 52.6523 91.1876 52.453V50.7889C91.1876 50.5897 91.0236 50.4257 90.8243 50.4257H90.7657Z" fill="#CAD4FF"/>
<path d="M93.6719 53.5195H93.6132C93.0273 53.5195 92.5469 53.039 92.5469 52.4531V50.789C92.5469 50.2031 93.0273 49.7227 93.6132 49.7227H93.6719C94.2578 49.7227 94.7382 50.2031 94.7382 50.789V52.4531C94.7383 53.0389 94.2578 53.5195 93.6719 53.5195ZM93.6133 50.4257C93.4141 50.4257 93.2501 50.5897 93.2501 50.7889V52.453C93.2501 52.6523 93.4141 52.8163 93.6133 52.8163H93.672C93.8712 52.8163 94.0352 52.6523 94.0352 52.453V50.7889C94.0352 50.5897 93.8712 50.4257 93.672 50.4257H93.6133Z" fill="#CAD4FF"/>
</g>
<defs>
<clipPath id="clip0_1377_79">
<rect width="60" height="60" fill="white" transform="translate(40 15)"/>
</clipPath>
</defs>
</svg>
