<svg width="140" height="90" viewBox="0 0 140 90" fill="none" xmlns="http://www.w3.org/2000/svg">
<rect width="140" height="90" rx="12" fill="#B5B5B5" fill-opacity="0.4"/>
<path d="M95.9032 27.0137H44.097C42.0943 27.0137 40.4707 28.6372 40.4707 30.64V61.1452C40.4707 63.1479 42.0943 64.7715 44.097 64.7715H95.9032C97.906 64.7715 99.5295 63.1479 99.5295 61.1452V30.64C99.5295 28.6372 97.906 27.0137 95.9032 27.0137Z" fill="url(#paint0_linear_1377_80)"/>
<path fill-rule="evenodd" clip-rule="evenodd" d="M56.2215 45.5332L56.4845 44.4951C57.4949 44.1906 59.5572 44.0522 59.9447 45.1456C60.1662 45.7823 59.5295 48.4259 59.4049 49.201L58.4222 49.2148C58.2008 48.938 58.3807 49.4501 58.2284 48.7719C57.2873 49.6162 55.2804 49.4778 55.4326 47.7754C55.5849 46.0868 57.052 46.3083 58.6437 46.0591C58.616 44.9796 57.2596 45.2702 56.2077 45.5193L56.2215 45.5332ZM63.6264 45.3671C62.7267 45.3671 62.5883 45.1733 61.7994 45.5193C61.8963 46.502 62.4084 46.1145 63.1143 46.5851C64.4568 47.4709 63.0174 50.2114 59.8201 49.0349L60.0001 48.0384C60.8997 48.2183 61.3565 48.3982 62.0485 48.0107C62.2146 46.6128 59.7371 47.5263 60.4291 45.284C60.8028 44.0661 62.4499 44.2321 63.8063 44.3567L63.6125 45.3671H63.6264ZM49.8409 43.2494L51.9586 43.3187L52.18 46.6405L53.3288 43.983C53.7163 43.028 53.4534 43.2356 55.8893 43.2633L54.7959 49.201L53.6056 49.1872L54.2561 44.9242L52.4983 49.2148L51.0727 49.1733C51.0312 48.3429 50.962 45.4225 50.7406 44.8688L50.0208 49.1872L48.7752 49.1733L49.8409 43.2494ZM70.0347 55.8584L70.616 55.1664C69.4534 55.0142 69.2457 55.3463 68.7198 54.4052L71.3911 54.3775C71.5572 54.1007 71.834 53.8377 71.9724 53.5193C68.9274 53.3117 68.0693 54.0868 67.5848 52.7581H72.4707L73.0105 51.9138L66.9759 51.8861L66.699 51.1802L73.2042 51.1526C73.5779 50.9449 73.5779 50.7097 73.6748 50.2806L67.5156 50.2667C66.4084 50.2806 66.3392 50.5297 66.1316 49.5193H73.8824L74.1316 48.6612L71.8617 48.6335L71.7509 49.2148L70.4499 49.1595L71.2665 44.329L72.4983 44.4951C72.4983 44.5228 72.526 44.6197 72.526 44.6612C72.526 44.6889 72.5399 44.7304 72.5399 44.7443L72.6091 44.9934C72.9551 44.5782 73.1765 44.2737 73.9793 44.3014L73.5641 45.4225C73.3288 45.727 72.6368 45.3809 72.3461 46.2114L73.7025 46.2667C73.8547 45.3948 74.0208 45.1318 74.27 44.4259L74.2838 44.0107L65.7994 44.0245L65.7717 44.329C66.2284 44.329 66.2146 44.246 66.4776 44.4674L66.353 45.284C65.4949 45.4917 65.5226 44.9796 65.4395 46.1007C65.5641 46.3083 65.4118 46.1975 65.6748 46.2667L66.2146 46.2806C67.0866 43.4432 69.6887 44.0661 70.2838 44.9519C70.6021 45.4225 70.9205 46.9726 70.1316 47.0972L67.488 47.1249C67.6125 48.5228 69.2181 48.2321 70.2561 47.8861C70.2146 48.4674 70.2561 48.938 69.7163 49.1318C69.2873 49.284 68.3876 49.2425 67.917 49.1318C66.7544 48.8688 66.2561 48.2875 66.1731 47.028L65.6748 47.0142C65.2181 46.8065 65.5779 47.0142 65.3426 46.4467C65.1489 47.6093 64.6229 48.3567 66.0624 48.1906C65.9793 48.8827 66.0762 49.118 65.315 49.201C63.1004 49.464 63.8201 47.983 64.18 46.0038C64.7475 42.8481 64.3046 43.2356 65.9101 43.2633L74.1592 43.2771L73.9932 42.419L66.0208 42.3913L66.1731 41.6993L73.7163 41.6578C73.5226 40.4813 73.481 40.7719 70.7406 40.7719C69.3426 40.7719 67.9586 40.7719 66.5606 40.7719C66.8513 39.7616 66.699 40.0384 69.4118 40.0384H73.0797L72.6921 39.1664L67.3772 39.1526L67.7371 38.4328L72.18 38.4052C71.6125 37.2425 71.6402 37.5747 68.4983 37.5193C68.8997 36.5228 69.6056 36.7719 70.8374 36.7719C70.4914 36.2183 70.2423 36.2598 70.0347 35.7892C69.5226 35.5263 69.0658 35.0557 68.5537 34.6958C64.6368 31.9276 59.3219 31.637 55.0589 33.7131C51.225 35.5678 47.4603 39.8584 47.5018 45.7962C47.5572 54.2806 55.0035 60.4674 63.4326 59.028C67.3911 58.3498 68.3876 56.7443 70.0208 55.8446L70.0347 55.8584Z" fill="#E41D2C"/>
<path fill-rule="evenodd" clip-rule="evenodd" d="M79.0727 44.4534C83.3634 43.5815 82.6575 45.6991 82.3115 47.4154C82.2008 47.9275 82.2008 48.9379 81.7994 49.2147C81.7025 49.2147 81.135 49.2285 81.0797 49.2009C80.6921 49.0486 80.8721 49.5054 80.8167 48.7995C79.6541 49.4638 77.8132 49.6161 78.0347 47.7614C78.2146 46.2804 79.7094 46.0451 81.2319 46.1143C81.1766 45.0209 80.18 45.2009 78.7959 45.5469L79.0866 44.4534H79.0727ZM83.308 44.3289L84.4568 44.3427C84.4707 44.3704 84.4845 44.4119 84.4845 44.4396L84.6644 44.9517C84.8721 44.6334 85.2596 44.3566 85.8686 44.3427L85.7025 45.3254L85.135 45.5469C84.0001 45.9206 84.0693 47.3462 83.7648 49.2147H82.4776L83.308 44.3289ZM89.4118 43.277H90.5883L89.5779 49.2285C88.2631 49.2424 88.5814 49.3116 88.1662 48.8133C87.308 50.0867 84.7336 48.9102 85.5226 46.2804C86.1039 44.315 88.0693 43.7891 89.0381 44.9517L89.4257 43.2631L89.4118 43.277ZM70.0485 35.8029C70.2561 36.2735 70.5191 36.232 70.8513 36.7856C69.6195 36.7856 68.9136 36.5227 68.5122 37.533C71.6541 37.5884 71.6264 37.2562 72.1939 38.4188L67.7509 38.4465L67.3911 39.1663L72.706 39.1801L73.0935 40.0521C71.8755 40.0521 70.6575 40.0521 69.4257 40.0521C66.7267 40.0521 66.8651 39.7891 66.5745 40.7856H70.7544C73.4949 40.7856 73.5364 40.495 73.7302 41.6714L66.1869 41.713L66.0347 42.405L74.007 42.4327L74.1731 43.2908L65.924 43.277L65.8132 44.0521L74.2977 44.0382L74.2838 44.4534C74.9205 43.8445 74.8098 43.5261 76.0001 43.1801C76.9828 42.9033 77.6056 43.1109 78.5745 43.3185L78.3669 44.5919C76.706 44.0936 75.6264 44.2182 75.2388 45.9344C74.8098 47.7752 76.2631 48.4673 77.7994 47.7337C77.661 49.0763 77.4395 49.4085 75.8617 49.2009C74.7682 49.0624 74.4361 48.5365 73.9516 47.886H71.9724L71.8617 48.6472L74.1316 48.6749L73.8824 49.533H66.1316C66.3392 50.5434 66.4084 50.2943 67.5157 50.2804L73.6748 50.2943C73.5641 50.7095 73.5779 50.9586 73.2042 51.1663L66.699 51.1939L66.9759 51.8998L73.0105 51.9275L72.4707 52.7718H67.5849C68.0693 54.0867 68.9274 53.3254 71.9724 53.533C71.834 53.8514 71.5572 54.1143 71.3911 54.3912L68.7198 54.4188C69.2319 55.3462 69.4534 55.0278 70.616 55.1801L70.0347 55.8721C72.0139 57.3254 73.5503 58.5434 76.7475 59.097C79.6541 59.5953 82.6852 59.0417 85.0243 57.8929C95.1558 52.8964 94.879 38.5019 84.9413 33.7406C81.3703 32.0382 76.6368 31.886 72.9413 33.8237C71.1558 34.751 70.7267 35.4154 70.0624 35.8168L70.0485 35.8029Z" fill="#F8B02B"/>
<path fill-rule="evenodd" clip-rule="evenodd" d="M48.7751 49.1872L50.0208 49.2011L50.7405 44.8827C50.962 45.4364 51.0312 48.3568 51.0727 49.1872L52.4983 49.2288L54.2561 44.9381L53.6056 49.2011L54.7959 49.2149L55.8893 43.2772C53.4533 43.2495 53.7163 43.0419 53.3288 43.9969L52.18 46.6544L51.9585 43.3326L49.8409 43.2634L48.7751 49.1872Z" fill="#FEFEFE"/>
<path fill-rule="evenodd" clip-rule="evenodd" d="M87.3357 48.094C86.2976 47.0282 87.1834 45.2566 88.1523 45.4919C89.1073 45.7272 88.9274 48.0663 87.3357 48.094ZM89.0242 44.9521C88.0554 43.7895 86.1038 44.3154 85.5087 46.2808C84.7197 48.8967 87.2941 50.087 88.1523 48.8137C88.5675 49.3119 88.2492 49.2289 89.564 49.2289L90.5744 43.2773H89.3979L89.0104 44.9659L89.0242 44.9521Z" fill="#FEFEFE"/>
<path fill-rule="evenodd" clip-rule="evenodd" d="M79.5157 48.1075C79.3219 47.1802 80.1801 46.8203 80.9967 46.9864C81.0382 47.9276 80.3738 48.4397 79.5157 48.1075ZM79.0728 44.4674L78.7821 45.5608C80.1662 45.2287 81.1766 45.0487 81.2181 46.1283C79.6956 46.0591 78.2008 46.2944 78.0209 47.7754C77.7856 49.63 79.6403 49.4778 80.8029 48.8134C80.8583 49.5193 80.6783 49.0626 81.0659 49.2148C81.1212 49.2425 81.6887 49.2287 81.7856 49.2287C82.2008 48.9657 82.2008 47.9415 82.2977 47.4293C82.6576 45.6992 83.3496 43.5954 79.0589 44.4674H79.0728Z" fill="#FEFEFE"/>
<path fill-rule="evenodd" clip-rule="evenodd" d="M58.4223 46.9457C58.4499 47.4163 58.3669 47.7761 58.0624 48.0114C57.8548 48.1637 57.2319 48.3436 56.9828 48.1083C56.2077 47.4024 57.661 46.9318 58.4084 46.9457H58.4223ZM56.2216 45.5339C57.2735 45.2848 58.6299 44.9941 58.6575 46.0737C57.0659 46.3228 55.5987 46.1014 55.4465 47.79C55.2804 49.4924 57.2873 49.6308 58.2423 48.7865C58.3946 49.4647 58.2146 48.9526 58.4361 49.2294L59.4188 49.2156C59.5434 48.4266 60.18 45.7969 59.9586 45.1602C59.571 44.0529 57.5226 44.1913 56.4984 44.5097L56.2354 45.5477L56.2216 45.5339Z" fill="#FEFEFE"/>
<path fill-rule="evenodd" clip-rule="evenodd" d="M67.6956 46.2259C67.8755 45.5201 68.18 45.2294 68.9966 45.3401C69.2873 45.7554 69.2873 45.6308 69.3426 46.2259H67.6956ZM66.2285 46.2951L66.1731 47.0425C66.2561 48.3021 66.7683 48.8695 67.917 49.1464C68.3876 49.2571 69.2873 49.2986 69.7163 49.1464C70.2561 48.9664 70.2146 48.482 70.2561 47.9007C69.2181 48.2467 67.6125 48.5374 67.488 47.1394L70.1316 47.1118C70.9205 46.9872 70.6022 45.4509 70.2838 44.9664C69.6887 44.0806 67.0866 43.4578 66.2146 46.2951H66.2285Z" fill="#FEFEFE"/>
<path fill-rule="evenodd" clip-rule="evenodd" d="M74.2838 44.4539C74.0346 45.1598 73.8686 45.4228 73.7163 46.2947V47.056L73.9516 47.9003C74.436 48.5508 74.7682 49.0767 75.8616 49.2152C77.4395 49.4228 77.6609 49.0906 77.7994 47.748C76.2492 48.4816 74.8097 47.7895 75.2388 45.9487C75.6402 44.2186 76.7198 44.1079 78.3668 44.6062L78.5744 43.3328C77.6056 43.139 76.9827 42.9314 76 43.1944C74.8097 43.5266 74.9205 43.8588 74.2838 44.4677V44.4539Z" fill="#FEFEFE"/>
<path fill-rule="evenodd" clip-rule="evenodd" d="M63.8062 44.3569C62.4498 44.2461 60.8028 44.0662 60.4291 45.2842C59.737 47.5264 62.2007 46.6129 62.0484 48.0108C61.3426 48.3984 60.8997 48.2185 60 48.0385L59.8201 49.0351C63.0173 50.2115 64.4429 47.4849 63.1142 46.5852C62.4083 46.1147 61.8962 46.516 61.7993 45.5195C62.5882 45.1596 62.7128 45.3672 63.6263 45.3672L63.8201 44.3569H63.8062Z" fill="#FEFEFE"/>
<path fill-rule="evenodd" clip-rule="evenodd" d="M65.3564 46.4604L65.4533 46.1282C65.5363 45.0071 65.5086 45.5192 66.3668 45.3116L66.4913 44.495C66.2283 44.2736 66.2422 44.3566 65.7854 44.3566L65.8131 44.0521L65.9238 43.277C64.3183 43.2493 64.7612 42.8618 64.1937 46.0175C63.8339 47.9967 63.1142 49.4777 65.3287 49.2147C66.0761 49.1317 65.9931 48.8964 66.0761 48.2044C64.6505 48.3704 65.1764 47.623 65.3564 46.4604Z" fill="#FEFEFE"/>
<path fill-rule="evenodd" clip-rule="evenodd" d="M71.8615 48.6611L71.9723 47.8998L72.1107 47.0694L72.3598 46.2389C72.6643 45.4085 73.3564 45.7545 73.5778 45.45L73.993 44.3289C73.1764 44.3012 72.955 44.6057 72.6228 45.0209L72.5536 44.7718C72.5536 44.758 72.5397 44.7164 72.5397 44.6888C72.5397 44.6611 72.5121 44.5503 72.5121 44.5227L71.2802 44.3566L70.4636 49.187L71.7647 49.2424L71.8754 48.6611H71.8615Z" fill="#FEFEFE"/>
<path fill-rule="evenodd" clip-rule="evenodd" d="M82.4775 49.2149H83.7647C84.0692 47.3464 84 45.9208 85.135 45.5471L85.7025 45.3256L85.8685 44.3429C85.2595 44.3568 84.872 44.6336 84.6644 44.9519L84.4845 44.4398C84.4706 44.4121 84.4706 44.3706 84.4568 44.3429L83.308 44.3291L82.4775 49.2149Z" fill="#FEFEFE"/>
<path fill-rule="evenodd" clip-rule="evenodd" d="M87.3357 48.0941C88.9412 48.0664 89.1211 45.7273 88.1523 45.492C87.1696 45.2567 86.2976 47.0283 87.3357 48.0941Z" fill="#F8B02B"/>
<path fill-rule="evenodd" clip-rule="evenodd" d="M58.4221 46.9446C57.6747 46.9308 56.2214 47.4014 56.9965 48.1073C57.2456 48.3287 57.8685 48.1488 58.0761 48.0104C58.3806 47.7889 58.4498 47.4152 58.436 46.9446H58.4221Z" fill="#E41D2C"/>
<path fill-rule="evenodd" clip-rule="evenodd" d="M71.9724 47.8861L73.9517 47.9L73.7164 47.0557H72.1108L71.9724 47.8861Z" fill="#E41D2C"/>
<path fill-rule="evenodd" clip-rule="evenodd" d="M79.5156 48.108C80.3876 48.4264 81.0381 47.9281 80.9966 46.9869C80.1661 46.8347 79.3218 47.1945 79.5156 48.108Z" fill="#F8B02B"/>
<path fill-rule="evenodd" clip-rule="evenodd" d="M72.1108 47.056H73.7164V46.2948L72.36 46.2256L72.1108 47.056Z" fill="#F8B02B"/>
<path fill-rule="evenodd" clip-rule="evenodd" d="M67.6956 46.2251H69.3426C69.3011 45.6438 69.2873 45.7545 68.9966 45.3393C68.18 45.2286 67.8755 45.5192 67.6956 46.2251Z" fill="#E41D2C"/>
<path fill-rule="evenodd" clip-rule="evenodd" d="M65.3564 46.4603C65.5917 47.0278 65.2319 46.8201 65.6886 47.0278L66.1869 47.0416L66.2423 46.2942L65.7025 46.2803C65.4256 46.225 65.5779 46.3219 65.4672 46.1143L65.3703 46.4464L65.3564 46.4603Z" fill="#F8B02B"/>
<defs>
<linearGradient id="paint0_linear_1377_80" x1="69.9996" y1="27.0189" x2="69.9996" y2="64.7796" gradientUnits="userSpaceOnUse">
<stop stop-color="#1D4C80"/>
<stop offset="1" stop-color="#173A63"/>
</linearGradient>
</defs>
</svg>
