<svg width="140" height="90" viewBox="0 0 140 90" fill="none" xmlns="http://www.w3.org/2000/svg">
<rect width="140" height="90" rx="12" fill="#B5B5B5" fill-opacity="0.4"/>
<path d="M73.4343 41.4512H79.3269V58.7639H73.4343V41.4512Z" fill="#77B0FB"/>
<path d="M60.6731 41.4512H66.5656V58.7639H60.6731V41.4512Z" fill="#77B0FB"/>
<path d="M47.9119 41.4512H53.8044V58.7639H47.9119V41.4512Z" fill="#77B0FB"/>
<path d="M78.1553 41.0283H79.3271V59.1872H78.1553V41.0283Z" fill="#6B9EE2"/>
<path d="M65.3938 41.0283H66.5657V59.1872H65.3938V41.0283Z" fill="#6B9EE2"/>
<path d="M52.6326 41.0283H53.8044V59.1872H52.6326V41.0283Z" fill="#6B9EE2"/>
<path d="M86.1956 41.4512H92.0881V58.7639H86.1956V41.4512Z" fill="#77B0FB"/>
<path d="M90.9165 41.0283H92.0884V59.1872H90.9165V41.0283Z" fill="#6B9EE2"/>
<path d="M70 36.2871C73.5033 36.2871 76.3432 33.4471 76.3432 29.9438C76.3432 26.4406 73.5033 23.6006 70 23.6006C66.4967 23.6006 63.6567 26.4406 63.6567 29.9438C63.6567 33.4471 66.4967 36.2871 70 36.2871Z" fill="#DCC23D"/>
<path d="M73.3104 33.9285C75.5102 31.7286 75.5102 28.162 73.3104 25.9621C71.1105 23.7623 67.5439 23.7623 65.344 25.9621C63.1442 28.162 63.1442 31.7286 65.344 33.9285C67.5439 36.1283 71.1105 36.1283 73.3104 33.9285Z" fill="#F4D844"/>
<path fill-rule="evenodd" clip-rule="evenodd" d="M69.1788 26.5254C69.1788 26.0723 69.5461 25.7051 69.9992 25.7051C70.4522 25.7051 70.8195 26.0723 70.8195 26.5254V26.7149C70.9399 26.7682 71.055 26.8324 71.1632 26.9064C71.5126 27.1454 71.7885 27.4883 71.9462 27.8941C72.109 28.3153 71.8996 28.7888 71.4784 28.9515C71.0572 29.1143 70.5838 28.9049 70.421 28.4837C70.3856 28.3924 70.3219 28.3143 70.2404 28.2585C70.1629 28.2055 70.0675 28.1746 69.9635 28.1746C69.7995 28.1746 69.6769 28.2306 69.6025 28.3139C69.5728 28.3471 69.5482 28.3894 69.5297 28.4375C69.5131 28.4811 69.5043 28.5279 69.5043 28.575C69.5043 28.6683 69.5429 28.7641 69.6278 28.84C69.7542 28.9529 69.9751 29.0077 70.195 29.062C70.7433 29.1977 71.2886 29.3327 71.7779 30.0163V30.0196C71.8497 30.1198 71.9091 30.2187 71.9562 30.3154C72.0034 30.4123 72.0445 30.5215 72.0794 30.641C72.1364 30.8366 72.164 31.03 72.164 31.2162C72.164 31.6613 72.0185 32.1026 71.751 32.4689L71.7495 32.4677C71.5218 32.7788 71.2069 33.0341 70.8197 33.1893V33.3621C70.8197 33.8152 70.4524 34.1824 69.9994 34.1824C69.5463 34.1824 69.1791 33.8152 69.1791 33.3621V33.2107C69.0155 33.1491 68.8606 33.0686 68.7171 32.9719C68.3537 32.7268 68.0647 32.3741 67.8956 31.9552C67.7275 31.5357 67.9313 31.0595 68.3507 30.8913C68.7701 30.7232 69.2463 30.927 69.4145 31.3464C69.458 31.4542 69.5352 31.5469 69.6335 31.6132C69.727 31.6762 69.8408 31.7129 69.9635 31.7129C70.0432 31.7129 70.1091 31.7045 70.1618 31.6891C70.2783 31.6552 70.3696 31.5881 70.4308 31.5043V31.5011C70.4908 31.4189 70.5233 31.3185 70.5233 31.2161C70.5233 31.1693 70.5186 31.1286 70.5092 31.0959C70.5056 31.0837 70.4966 31.0628 70.4821 31.033C70.4694 31.0071 70.4575 30.9858 70.4465 30.97L70.4449 30.971C70.3048 30.7752 70.0551 30.7133 69.804 30.6512C69.3892 30.5486 68.9724 30.4454 68.5383 30.0575C68.0747 29.6432 67.8636 29.106 67.8636 28.5749C67.8636 28.3291 67.9099 28.0845 67.9981 27.8543C68.0845 27.6288 68.2149 27.4145 68.3848 27.2244C68.5958 26.9883 68.8637 26.7964 69.1791 26.6754V26.5253L69.1788 26.5254Z" fill="#E39069"/>
<path fill-rule="evenodd" clip-rule="evenodd" d="M55.0729 29.0534L44.607 35.732C44.0194 36.1069 43.7598 36.798 43.955 37.467C44.1503 38.136 44.7409 38.5788 45.4378 38.5788H46.1909H55.5253H70.0001H71.7135H94.5623C95.2593 38.5788 95.8499 38.136 96.0451 37.467C96.2404 36.798 95.9808 36.1069 95.3932 35.732L84.9273 29.0534L71.9176 20.7516C70.7207 19.9878 69.2794 19.9878 68.0824 20.7516L55.0727 29.0534H55.0729ZM70.0001 35.5485C66.9047 35.5485 64.3954 33.0392 64.3954 29.9438C64.3954 26.8484 66.9047 24.339 70.0001 24.339C73.0955 24.339 75.6048 26.8484 75.6048 29.9438C75.6048 33.0392 73.0955 35.5485 70.0001 35.5485Z" fill="#2B4C9F"/>
<path fill-rule="evenodd" clip-rule="evenodd" d="M55.5251 40.6342V37.9199H46.1907V40.6342C46.1907 41.3842 46.9652 41.9979 47.9117 41.9979H53.8042C54.7508 41.9979 55.5251 41.3842 55.5251 40.6342Z" fill="#2B4C9F"/>
<path fill-rule="evenodd" clip-rule="evenodd" d="M58.9521 37.9199V40.6342C58.9521 41.3842 59.7266 41.9979 60.6732 41.9979H66.5657C67.5122 41.9979 68.2866 41.3842 68.2866 40.6342V37.9199H58.9521Z" fill="#2B4C9F"/>
<path fill-rule="evenodd" clip-rule="evenodd" d="M71.7134 37.9199V40.6342C71.7134 41.3842 72.4879 41.9979 73.4344 41.9979H79.3269C80.2735 41.9979 81.0478 41.3842 81.0478 40.6342V37.9199H71.7134Z" fill="#2B4C9F"/>
<path fill-rule="evenodd" clip-rule="evenodd" d="M84.4749 37.9199V40.6342C84.4749 41.3842 85.2493 41.9979 86.1959 41.9979H92.0884C93.0349 41.9979 93.8093 41.3842 93.8093 40.6342V37.9199H84.4749Z" fill="#2B4C9F"/>
<path fill-rule="evenodd" clip-rule="evenodd" d="M53.8042 58.2168H47.9117C46.9652 58.2168 46.1907 58.8305 46.1907 59.5805V62.7473H55.5251V59.5805C55.5251 58.8305 54.7508 58.2168 53.8042 58.2168Z" fill="#2B4C9F"/>
<path fill-rule="evenodd" clip-rule="evenodd" d="M60.6732 58.2168C59.7266 58.2168 58.9521 58.8305 58.9521 59.5805V62.7473H68.2866V59.5805C68.2866 58.8305 67.5122 58.2168 66.5657 58.2168H60.6732Z" fill="#2B4C9F"/>
<path fill-rule="evenodd" clip-rule="evenodd" d="M73.4344 58.2168C72.4879 58.2168 71.7134 58.8305 71.7134 59.5805V62.7473H81.0478V59.5805C81.0478 58.8305 80.2733 58.2168 79.3269 58.2168H73.4344Z" fill="#2B4C9F"/>
<path fill-rule="evenodd" clip-rule="evenodd" d="M84.4749 59.5805V62.7473H93.8093V59.5805C93.8093 58.8305 93.0349 58.2168 92.0884 58.2168H86.1959C85.2493 58.2168 84.4749 58.8305 84.4749 59.5805Z" fill="#2B4C9F"/>
<path fill-rule="evenodd" clip-rule="evenodd" d="M93.8093 61.6924H45.7534C44.7643 61.6924 43.9551 62.5017 43.9551 63.4907V66.6955H96.0452V63.4907C96.0452 62.5017 95.2359 61.6924 94.2468 61.6924H93.8093Z" fill="#6B9EE2"/>
<path fill-rule="evenodd" clip-rule="evenodd" d="M44.0684 62.8644C43.9952 63.0596 43.9551 63.2708 43.9551 63.4907V66.6955H94.8734V63.4907C94.8734 63.1484 94.5891 62.8643 94.2468 62.8643H44.0684V62.8644Z" fill="#77B0FB"/>
<path fill-rule="evenodd" clip-rule="evenodd" d="M95.8592 65.29H44.1408C42.8945 65.29 41.875 66.3097 41.875 67.5559V69.8218H98.125V67.5559C98.125 66.3097 97.1054 65.29 95.8592 65.29Z" fill="#2B4C9F"/>
</svg>
