<svg width="140" height="90" viewBox="0 0 140 90" fill="none" xmlns="http://www.w3.org/2000/svg">
<rect width="140" height="90" rx="12" fill="#B5B5B5" fill-opacity="0.4"/>
<g clip-path="url(#clip0_1381_278)">
<path d="M98.1136 59.4707C95.6131 62.9776 97.3996 60.4718 89.281 71.8598C89.281 71.8598 85.7245 77.9939 79.6795 73.1047L42.0756 33.5902C42.0756 33.5902 39.5871 29.0561 43.7647 26.6121C60.595 19.9378 56.8509 21.4228 61.8119 19.4546C61.8119 19.4546 64.9228 18.3447 69.6338 24.0333C73.6129 28.8372 92.1972 49.3575 97.8883 55.6304C98.857 56.6983 98.9512 58.2971 98.1136 59.4707Z" fill="#52528C"/>
<path d="M96.1877 62.172L89.281 71.86C89.281 71.86 85.7245 77.9941 79.6795 73.1049L42.0756 33.5904C42.0756 33.5904 39.5871 29.0563 43.7647 26.6124L58.0772 20.9365C62.9358 30.72 75.5388 52.2917 96.1877 62.172Z" fill="#404077"/>
<path d="M95.2636 58.8812C93.6869 61.0927 87.1024 70.3288 87.0942 70.3436C86.3444 71.5821 84.6095 71.745 83.6319 70.6771L47.2843 30.9513C46.2571 29.8273 46.6721 28.0211 48.0888 27.4597L49.9561 26.7202L51.0496 27.6506C51.9597 28.4258 53.2402 28.6002 54.3247 28.0974L59.1172 25.8775C60.4246 25.2712 61.1445 23.8312 60.8178 22.4101L61.7877 22.0257C61.7877 22.0257 64.6555 21.0036 68.9974 26.2479C72.6697 30.6801 89.8411 49.6399 95.0599 55.3921C95.9395 56.3621 96.0248 57.8146 95.2636 58.8812Z" fill="#BAEDFE"/>
<path d="M93.787 60.9525C86.9177 70.5891 87.1033 70.3274 87.0942 70.3439C86.3444 71.5825 84.6095 71.7454 83.6319 70.6774L47.2843 30.9516C46.2571 29.8276 46.6721 28.0214 48.0888 27.4601L49.9561 26.7205L51.0496 27.651C51.9597 28.4262 53.2402 28.6006 54.3247 28.0978L59.1172 25.8778C59.5563 25.6742 59.9267 25.3776 60.2144 25.0225C65.8801 35.3482 77.0128 51.9315 93.787 60.9525Z" fill="#9AE1FF"/>
<path d="M59.643 67.9633C56.6331 74.259 49.4611 76.9966 44.423 73.3934C40.4961 70.5791 39.283 64.6665 41.7881 59.426C44.2957 54.1842 49.6597 51.4156 54.3159 52.7076C60.312 54.375 62.6414 61.6943 59.643 67.9633Z" fill="#EDD15A"/>
<path d="M56.9495 66.6751C54.4432 71.9169 49.0779 74.6854 44.423 73.3934C40.4961 70.5791 39.283 64.6665 41.7881 59.4259C44.2957 54.1842 49.6597 51.4156 54.3159 52.7076C58.2428 55.5208 59.4559 61.4347 56.9495 66.6751Z" fill="#FAE26B"/>
<path d="M53.4881 65.4098C55.3832 61.4437 54.6433 57.1409 51.8355 55.7992C49.0276 54.4576 45.2152 56.5851 43.3201 60.5512C41.425 64.5173 42.1649 68.82 44.9727 70.1617C47.7805 71.5034 51.593 69.3758 53.4881 65.4098Z" fill="#EDD15A"/>
<path d="M93.5911 50.6305C93.595 51.0773 93.5046 51.519 93.3251 51.9288C91.1663 56.8358 86.8677 61.2757 83.5875 64.1741C81.7647 65.7841 78.8811 64.8225 78.3953 62.4455C74.8452 45.1367 65.8675 36.9927 61.3105 33.8715C59.8365 32.8621 59.4954 30.8179 60.5671 29.3884C64.4724 24.1803 69.6696 19.3487 74.9025 15.594C76.2416 14.6342 78.0949 14.8583 79.1591 16.1159C92.6276 32.0206 93.5581 47.2764 93.5911 50.6305Z" fill="#79E9B3"/>
<path d="M93.5909 50.6305C93.5948 51.0773 93.5044 51.519 93.3249 51.9288C91.1661 56.8358 86.8675 61.2757 83.5872 64.1741C82.2138 65.3872 80.237 65.1415 79.1385 63.9259C83.6929 43.7339 77.7243 24.8174 74.1895 16.1134C74.4389 15.9288 74.677 15.7557 74.9023 15.594C76.2414 14.6342 78.0947 14.8583 79.1588 16.1159C92.6274 32.0206 93.5578 47.2764 93.5909 50.6305Z" fill="#14D2AA"/>
<path d="M89.7533 50.9751C88.0744 53.5311 85.9117 55.793 84.1271 57.4452C83.2047 54.8987 79.7144 55.256 79.6733 55.2138C76.7061 44.7035 70.1444 37.3551 66.2798 33.7528C68.3037 31.1828 66.9456 28.5594 65.9985 27.2674C68.4489 24.1603 71.0939 21.7799 73.2069 20.1328C75.1412 21.5966 77.4542 21.7747 79.6771 20.2907C86.235 28.9973 89.4606 38.9131 90.7971 44.0378C89.7342 45.1681 88.2882 47.5014 89.7533 50.9751Z" fill="#B4FFC6"/>
<path d="M89.7533 50.9755C88.0744 53.5314 85.9117 55.7934 84.1271 57.4456C83.5365 55.815 81.8855 55.3339 80.4968 55.2346C81.7137 41.7406 78.8497 29.4635 76.1091 21.303C77.1491 21.3946 78.3634 21.168 79.6771 20.291C86.235 28.9976 89.4605 38.9135 90.7971 44.0382C89.7342 45.1685 88.2882 47.5017 89.7533 50.9755Z" fill="#79E9B3"/>
<path d="M96.3138 34.468C92.0306 37.885 85.3292 35.813 82.4876 29.8703C79.765 24.1767 82.0295 17.9927 86.8778 16.4171C91.0911 15.0284 96.0668 17.4927 98.3568 22.2813C100.519 26.8039 99.566 31.8893 96.3138 34.468Z" fill="#EDD15A"/>
<path d="M96.3137 34.468C92.1004 35.8555 87.1272 33.3886 84.8373 28.6012C82.6759 24.0799 83.628 18.996 86.8777 16.4171C91.091 15.0284 96.0668 17.4927 98.3567 22.2813C100.519 26.8039 99.566 31.8893 96.3137 34.468Z" fill="#FAE26B"/>
<path d="M95.5041 31.8585C97.9996 30.6661 98.6573 26.842 96.973 23.3171C95.2887 19.7922 91.9003 17.9014 89.4048 19.0938C86.9093 20.2863 86.2516 24.1104 87.9359 27.6353C89.6202 31.1602 93.0086 33.051 95.5041 31.8585Z" fill="#EDD15A"/>
</g>
<defs>
<clipPath id="clip0_1381_278">
<rect width="60" height="60" fill="white" transform="translate(40 15)"/>
</clipPath>
</defs>
</svg>
