<svg width="140" height="90" viewBox="0 0 140 90" fill="none" xmlns="http://www.w3.org/2000/svg">
<rect width="140" height="90" rx="12" fill="#B5B5B5" fill-opacity="0.4"/>
<g clip-path="url(#clip0_1381_321)">
<path d="M90.2589 30.5016C90.3605 29.676 90.4136 28.8354 90.4136 27.9824C90.4136 20.8125 84.6013 15 77.4313 15H55.7349C54.3702 15 53.205 15.9855 52.9786 17.3313L44.984 64.8479C44.6972 66.553 46.0115 68.1068 47.7404 68.1068H55.6753C57.04 68.1068 58.2271 67.122 58.4534 65.7761C58.4534 65.7761 58.4667 65.6972 58.4906 65.5552H58.4907L57.3849 72.1277C57.1323 73.6304 58.2907 75 59.8145 75H66.7563C67.9592 75 68.9862 74.1313 69.1857 72.9451L71.1579 61.224C71.4978 59.2035 73.2471 57.724 75.2959 57.724H77.1195C87.0254 57.724 95.0555 49.6937 95.0555 39.788C95.0555 35.9549 93.1609 32.5666 90.2589 30.5016Z" fill="#002987"/>
<path d="M90.259 30.502C89.0175 40.6011 80.4101 48.4211 69.9755 48.4211H63.921C62.5545 48.4211 61.3743 49.3313 61.0041 50.6182L57.3851 72.1279C57.1323 73.6307 58.2907 75.0004 59.8145 75.0004H66.7563C67.9593 75.0004 68.9863 74.1317 69.1858 72.9455L71.1579 61.2244C71.4979 59.2039 73.2471 57.7244 75.2959 57.7244H77.1196C87.0254 57.7244 95.0556 49.6941 95.0556 39.7884C95.0556 35.9553 93.1609 32.567 90.259 30.502Z" fill="#0085CC"/>
<path d="M63.9209 48.4204H69.9754C80.4102 48.4204 89.0176 40.6003 90.2589 30.5013C88.3971 29.1764 86.1218 28.3945 83.6625 28.3945H67.8597C66.0605 28.3945 64.5243 29.6938 64.2257 31.468L61.0039 50.6174C61.3741 49.3304 62.5544 48.4204 63.9209 48.4204Z" fill="#00186A"/>
</g>
<defs>
<clipPath id="clip0_1381_321">
<rect width="60" height="60" fill="white" transform="translate(40 15)"/>
</clipPath>
</defs>
</svg>
