<svg width="704" height="391" viewBox="0 0 704 391" fill="none" xmlns="http://www.w3.org/2000/svg">
<g style="mix-blend-mode:soft-light">
<path d="M142.506 148.293L18.6037 357.93C10.3843 371.837 20.409 389.406 36.5632 389.406H107.021C114.264 389.406 120.988 385.65 124.785 379.483L216.52 230.514C220.694 223.735 220.646 215.172 216.398 208.44L178.108 147.773C169.78 134.578 150.445 134.861 142.506 148.293Z" fill="white" fill-opacity="0.2"/>
<path d="M224.628 9.91964L181.29 80.2681C177.235 86.8505 177.153 95.1358 181.076 101.798L273.202 258.213C281.393 272.12 271.366 289.662 255.226 289.662H218.668C211.331 289.662 204.533 293.517 200.766 299.813L165.57 358.633C157.25 372.538 167.267 390.206 183.472 390.206H339.317C346.609 390.206 353.372 386.399 357.154 380.164L405.561 300.357C409.554 293.773 409.597 285.526 405.672 278.902L315.334 126.455C307.093 112.549 317.117 94.9582 333.282 94.9582H367.771C374.827 94.9582 381.405 91.3919 385.254 85.479L419.914 32.2444C428.949 18.3669 418.991 0 402.431 0H242.39C235.149 0 228.426 3.75468 224.628 9.91964Z" fill="white" fill-opacity="0.2"/>
<path d="M450.904 28.92L371.25 154.893C366.967 161.666 366.943 170.295 371.188 177.092L409.791 238.908C418.206 252.385 437.996 251.883 445.718 237.998L451.187 228.163C459.027 214.065 479.219 213.819 487.4 227.724L577.413 380.717C581.162 387.088 588.002 391 595.394 391H666.909C683.131 391 693.146 373.296 684.79 359.392L486.418 29.3228C478.419 16.0136 459.203 15.7956 450.904 28.92Z" fill="white" fill-opacity="0.2"/>
</g>
</svg>
